<svg width="64" height="64" viewBox="0 0 64 64" fill="none" xmlns="http://www.w3.org/2000/svg">
<path d="M59.5 7H4.5C3.57206 7.00103 2.68241 7.3701 2.02626 8.02626C1.3701 8.68241 1.00103 9.57206 1 10.5V45.5C1.00103 46.4279 1.3701 47.3176 2.02626 47.9737C2.68241 48.6299 3.57206 48.999 4.5 49H24.5225L23.3225 52H18C17.7348 52 17.4804 52.1054 17.2929 52.2929C17.1054 52.4804 17 52.7348 17 53V55H11C10.7348 55 10.4804 55.1054 10.2929 55.2929C10.1054 55.4804 10 55.7348 10 56C10 56.2652 10.1054 56.5196 10.2929 56.7071C10.4804 56.8946 10.7348 57 11 57H53C53.2652 57 53.5196 56.8946 53.7071 56.7071C53.8946 56.5196 54 56.2652 54 56C54 55.7348 53.8946 55.4804 53.7071 55.2929C53.5196 55.1054 53.2652 55 53 55H47V53C47 52.7348 46.8946 52.4804 46.7071 52.2929C46.5196 52.1054 46.2652 52 46 52H40.6775L39.4775 49H59.5C60.4279 48.999 61.3176 48.6299 61.9737 47.9737C62.6299 47.3176 62.999 46.4279 63 45.5V10.5C62.999 9.57206 62.6299 8.68241 61.9737 8.02626C61.3176 7.3701 60.4279 7.00103 59.5 7V7ZM45 54V55H19V54H45ZM25.4775 52L26.6775 49H37.3225L38.5225 52H25.4775ZM61 45.5C60.9997 45.8977 60.8415 46.2791 60.5603 46.5603C60.2791 46.8415 59.8977 46.9997 59.5 47H4.5C4.10228 46.9997 3.72094 46.8415 3.43971 46.5603C3.15847 46.2791 3.00033 45.8977 3 45.5V43H61V45.5ZM61 41H3V10.5C3.00033 10.1023 3.15847 9.72094 3.43971 9.43971C3.72094 9.15847 4.10228 9.00033 4.5 9H59.5C59.8977 9.00033 60.2791 9.15847 60.5603 9.43971C60.8415 9.72094 60.9997 10.1023 61 10.5V41Z" fill="#FFB400"/>
<path d="M27.4514 32.8358C27.5612 32.9078 27.6841 32.9575 27.8131 32.9821C27.9421 33.0066 28.0747 33.0055 28.2033 32.9788C28.3319 32.9521 28.454 32.9004 28.5625 32.8265C28.6711 32.7526 28.7641 32.6581 28.8361 32.5483L36.7111 20.5483C36.8567 20.3266 36.9082 20.0561 36.8543 19.7964C36.8004 19.5367 36.6456 19.3091 36.4239 19.1635C36.2022 19.018 35.9317 18.9665 35.672 19.0204C35.4123 19.0742 35.1847 19.2291 35.0391 19.4508L27.1641 31.4508C27.092 31.5606 27.0423 31.6835 27.0177 31.8125C26.9931 31.9416 26.9942 32.0742 27.0208 32.2028C27.0475 32.3314 27.0993 32.4535 27.1731 32.5621C27.247 32.6707 27.3416 32.7637 27.4514 32.8358Z" fill="#FFB400"/>
<path d="M38.3596 32.7682C38.5633 32.938 38.8262 33.0198 39.0903 32.9958C39.3544 32.9718 39.5982 32.8438 39.768 32.6401L44.768 26.6401C44.9177 26.4604 44.9997 26.2339 44.9997 25.9999C44.9997 25.766 44.9177 25.5395 44.768 25.3598L39.768 19.3598C39.6842 19.2581 39.5811 19.1739 39.4647 19.1122C39.3482 19.0504 39.2207 19.0123 39.0895 19C38.9583 18.9877 38.8259 19.0014 38.7 19.0404C38.5741 19.0795 38.4572 19.143 38.356 19.2273C38.2547 19.3117 38.1711 19.4153 38.11 19.532C38.0489 19.6488 38.0115 19.7765 38 19.9078C37.9884 20.0391 38.0029 20.1714 38.0426 20.2971C38.0823 20.4227 38.1465 20.5393 38.2315 20.6401L42.698 25.9999L38.2315 31.3598C38.0617 31.5636 37.9798 31.8264 38.0038 32.0906C38.0279 32.3547 38.1558 32.5984 38.3596 32.7682V32.7682Z" fill="#FFB400"/>
<path d="M24.2317 32.6401C24.3155 32.7418 24.4186 32.826 24.535 32.8877C24.6515 32.9495 24.779 32.9876 24.9102 32.9999C25.0414 33.0122 25.1738 32.9985 25.2997 32.9595C25.4255 32.9204 25.5425 32.8569 25.6437 32.7725C25.745 32.6882 25.8286 32.5846 25.8897 32.4679C25.9508 32.3511 25.9882 32.2234 25.9997 32.0921C26.0113 31.9608 25.9968 31.8285 25.9571 31.7028C25.9173 31.5772 25.8532 31.4606 25.7682 31.3598L21.3017 25.9999L25.7682 20.6401C25.8532 20.5393 25.9173 20.4227 25.9571 20.2971C25.9968 20.1714 26.0113 20.0391 25.9997 19.9078C25.9882 19.7765 25.9508 19.6488 25.8897 19.532C25.8286 19.4153 25.745 19.3117 25.6437 19.2273C25.5425 19.143 25.4255 19.0795 25.2997 19.0404C25.1738 19.0014 25.0414 18.9877 24.9102 19C24.779 19.0123 24.6515 19.0504 24.535 19.1122C24.4186 19.1739 24.3155 19.2581 24.2317 19.3598L19.2317 25.3598C19.082 25.5395 19 25.766 19 25.9999C19 26.2339 19.082 26.4604 19.2317 26.6401L24.2317 32.6401Z" fill="#FFB400"/>
</svg>
