<svg width="64" height="64" viewBox="0 0 64 64" fill="none" xmlns="http://www.w3.org/2000/svg">
<g clip-path="url(#clip0_2_621)">
<path d="M29.75 46.4365C29.2321 46.4365 28.8125 46.8563 28.8125 47.374C28.8125 47.8918 29.2321 48.3115 29.75 48.3115H34.25C34.7679 48.3115 35.1875 47.8918 35.1875 47.374C35.1875 46.8563 34.7679 46.4365 34.25 46.4365H29.75Z" fill="#0668E1"/>
<path d="M11.25 31.8794H17.447C17.8255 32.8645 18.7791 33.5669 19.8959 33.5669C21.0126 33.5669 21.9662 32.8645 22.3447 31.8794H23.5834C24.1013 31.8794 24.5209 31.4596 24.5209 30.9419C24.5209 30.4241 24.1013 30.0044 23.5834 30.0044H22.3447C21.9662 29.0193 21.0126 28.3169 19.8959 28.3169C18.7791 28.3169 17.8255 29.0193 17.447 30.0044H11.25C10.7321 30.0044 10.3125 30.4241 10.3125 30.9419C10.3125 31.4596 10.7321 31.8794 11.25 31.8794ZM19.8959 30.1919C20.3095 30.1919 20.6459 30.5283 20.6459 30.9419C20.6459 31.3555 20.3095 31.6919 19.8959 31.6919C19.4823 31.6919 19.1459 31.3555 19.1459 30.9419C19.1459 30.5283 19.4823 30.1919 19.8959 30.1919Z" fill="#0668E1"/>
<path d="M11.25 26.5044H12.447C12.8255 27.4895 13.7791 28.1919 14.8959 28.1919C16.0126 28.1919 16.9662 27.4895 17.3447 26.5044H23.5834C24.1013 26.5044 24.5209 26.0846 24.5209 25.5669C24.5209 25.0491 24.1013 24.6294 23.5834 24.6294H17.3447C16.9662 23.6443 16.0126 22.9419 14.8959 22.9419C13.7791 22.9419 12.8255 23.6443 12.447 24.6294H11.25C10.7321 24.6294 10.3125 25.0491 10.3125 25.5669C10.3125 26.0846 10.7321 26.5044 11.25 26.5044ZM14.8959 24.8169C15.3095 24.8169 15.6459 25.1533 15.6459 25.5669C15.6459 25.9805 15.3095 26.3169 14.8959 26.3169C14.4822 26.3169 14.1459 25.9805 14.1459 25.5669C14.1459 25.1533 14.4822 24.8169 14.8959 24.8169Z" fill="#0668E1"/>
<path d="M23.771 17.8794C24.2888 17.8794 24.7085 17.4597 24.7085 16.9419C24.7085 16.4241 24.2888 16.0044 23.771 16.0044C23.2532 16.0044 22.8335 16.4241 22.8335 16.9419C22.8335 17.4597 23.2532 17.8794 23.771 17.8794Z" fill="#0668E1"/>
<path d="M21.1875 17.8794C21.7053 17.8794 22.125 17.4597 22.125 16.9419C22.125 16.4241 21.7053 16.0044 21.1875 16.0044C20.6697 16.0044 20.25 16.4241 20.25 16.9419C20.25 17.4597 20.6697 17.8794 21.1875 17.8794Z" fill="#0668E1"/>
<path d="M18.604 17.8794C19.1218 17.8794 19.5415 17.4597 19.5415 16.9419C19.5415 16.4241 19.1218 16.0044 18.604 16.0044C18.0862 16.0044 17.6665 16.4241 17.6665 16.9419C17.6665 17.4597 18.0862 17.8794 18.604 17.8794Z" fill="#0668E1"/>
<path d="M61.1875 6.31043H60.8364L61.0983 6.04855C61.8826 5.26418 61.8826 3.9878 61.0983 3.20343L59.046 1.15118C58.2616 0.366926 56.9854 0.366926 56.2009 1.15118L51.042 6.3103H2.8125C1.26175 6.3103 0 7.57193 0 9.1228V48.0558C0 49.9513 1.542 51.4933 3.4375 51.4933H25.6431V58.1252H21.125C19.9189 58.1252 18.9375 59.1065 18.9375 60.3127V61.2494C18.9375 62.4555 19.9189 63.4369 21.125 63.4369H42.875C44.0811 63.4369 45.0625 62.4555 45.0625 61.2494V60.3127C45.0625 59.1065 44.0811 58.1252 42.875 58.1252H38.3569V51.4933H48.375C48.8929 51.4933 49.3125 51.0735 49.3125 50.5558C49.3125 50.038 48.8929 49.6183 48.375 49.6183H3.4375C2.57587 49.6183 1.875 48.9174 1.875 48.0558V45.2808H62.125V48.0558C62.125 48.9174 61.4241 49.6183 60.5625 49.6183H52.75C52.2321 49.6183 51.8125 50.038 51.8125 50.5558C51.8125 51.0735 52.2321 51.4933 52.75 51.4933H60.5625C62.458 51.4933 64 49.9513 64 48.0558V9.12293C64 7.57218 62.7383 6.31043 61.1875 6.31043V6.31043ZM42.875 60.0003C43.0474 60.0003 43.1875 60.1405 43.1875 60.3128V61.2495C43.1875 61.4218 43.0474 61.562 42.875 61.562H21.125C20.9526 61.562 20.8125 61.4218 20.8125 61.2495V60.3128C20.8125 60.1405 20.9526 60.0003 21.125 60.0003H42.875ZM27.5181 51.4935H36.482V58.1254H27.5181V51.4935ZM57.5267 2.47718C57.5802 2.4238 57.667 2.42393 57.7202 2.47718L59.7724 4.5293C59.8257 4.58268 59.8257 4.66955 59.7724 4.7228L57.8143 6.68093L55.5686 4.4353L57.5267 2.47718ZM54.2427 5.76118L56.4883 8.0068L55.8344 8.66068L53.5889 6.41505L54.2427 5.76118ZM52.263 7.74093L54.5086 9.98655L43.4147 21.0804L41.1691 18.8348L52.263 7.74093ZM50.875 16.312C52.1501 16.312 53.1875 17.3494 53.1875 18.6246C53.1875 19.8997 52.1501 20.9371 50.875 20.9371C49.5999 20.9371 48.5625 19.8997 48.5625 18.6246C48.5625 18.6097 48.5645 18.5953 48.5648 18.5804L50.8312 16.3143C50.8459 16.3141 50.8602 16.312 50.875 16.312ZM41.7868 22.1042L39.0121 23.2374L40.1454 20.4628L41.7868 22.1042ZM62.125 43.406H1.875V9.12293C1.875 8.60605 2.2955 8.18543 2.8125 8.18543H49.1671L47.7376 9.61492H15.875C15.3571 9.61492 14.9375 10.0347 14.9375 10.5524C14.9375 11.0702 15.3571 11.4899 15.875 11.4899H45.8628L39.2501 18.1029C39.0633 18.2914 38.9171 18.5114 38.8165 18.7577L36.7224 23.8847C36.5302 24.3555 36.6385 24.8922 36.9981 25.2517C37.2395 25.4931 37.5605 25.6211 37.8879 25.6211C38.0484 25.6211 38.2102 25.5903 38.3651 25.5272L43.492 23.4332C43.7313 23.3354 43.9452 23.1939 44.1302 23.0145L46.9823 20.1629C47.5966 21.7128 49.1091 22.8122 50.8751 22.8122C53.1841 22.8122 55.0626 20.9337 55.0626 18.6247C55.0626 16.8589 53.9635 15.3466 52.4139 14.7321L55.6562 11.49H58.8205V40.1017H58.3236L54.9261 34.217C54.6674 33.7685 54.0936 33.6149 53.6455 33.8739C53.1971 34.1328 53.0435 34.7062 53.3024 35.1545L56.1586 40.1017H43.0624L41.6577 37.6688L48.2059 26.3272L51.1147 31.3657C51.3737 31.8141 51.9471 31.9678 52.3954 31.7088C52.8437 31.4499 52.9974 30.8766 52.7385 30.4282L49.6351 25.053C49.3367 24.5363 48.8025 24.2278 48.2057 24.2278C47.609 24.2278 47.0746 24.5363 46.7762 25.053L40.575 35.7939L32.6183 22.0126C32.3199 21.4958 31.7856 21.1873 31.1887 21.1873C30.5921 21.1873 30.0577 21.4958 29.7594 22.0126L27.6455 25.6739V15.6248C27.6455 14.4187 26.6641 13.4373 25.458 13.4373H9.375C8.16887 13.4373 7.1875 14.4187 7.1875 15.6248V36.1248C7.1875 36.9864 7.88837 37.6873 8.75 37.6873H20.7099L19.3159 40.1018H5.17963V11.4899H11.5C12.0179 11.4899 12.4375 11.0702 12.4375 10.5524C12.4375 10.0347 12.0179 9.61492 11.5 9.61492H4.86713C4.0055 9.61492 3.30463 10.3158 3.30463 11.1774V40.414C3.30463 41.2757 4.0055 41.9765 4.86713 41.9765H59.133C59.9946 41.9765 60.6955 41.2757 60.6955 40.414V11.1774C60.6955 10.3158 59.9946 9.61492 59.133 9.61492H57.5315L58.9613 8.18543H61.1875C61.7045 8.18543 62.125 8.60605 62.125 9.12293V43.406ZM25.7709 20.8168V35.812H9.0625V20.8168H25.7709ZM9.0625 18.9418V15.6245C9.0625 15.4523 9.20263 15.312 9.375 15.312H25.4584C25.6308 15.312 25.7709 15.4523 25.7709 15.6245V18.9418H9.0625ZM22.875 37.687H26.0834C26.945 37.687 27.6459 36.9862 27.6459 36.1245V34.1387C27.8804 34.2512 28.1415 34.312 28.415 34.312C29.055 34.312 29.628 33.981 29.9479 33.4269L31.5434 30.6635C31.5916 30.58 31.6654 30.5624 31.7185 30.5624C31.7719 30.5624 31.8456 30.58 31.8937 30.6635L32.8774 32.3672C33.1974 32.9216 33.7705 33.2524 34.4106 33.2524C35.0506 33.2524 35.6238 32.9215 35.9436 32.3673L36.1879 31.9443L40.8974 40.1014H21.481L22.875 37.687ZM27.6459 31.0004V29.4237L31.1893 23.2866L35.1053 30.0693L34.4105 31.2725L33.5175 29.7259C33.142 29.0756 32.4695 28.6873 31.7184 28.6873C30.9674 28.6873 30.2949 29.0756 29.9194 29.7259L28.4146 32.3322L27.6459 31.0004Z" fill="#0668E1"/>
</g>
<defs>
<clipPath id="clip0_2_621">
<rect width="64" height="64" fill="white"/>
</clipPath>
</defs>
</svg>
